<svg xmlns="http://www.w3.org/2000/svg" width="32" height="32" fill="none" viewBox="0 0 32 32">
    <g fill="#959595" clip-path="url(#clip0)">
        <path d="M29.7 16c0-.147-.08-.293-.12-.44-.062-.259-.142-.513-.24-.76-.067-.16-.16-.32-.24-.493-.08-.174-.2-.4-.32-.587-.12-.187-.28-.28-.28-.387 0-.106-.267-.333-.413-.493-.147-.16-.28-.267-.427-.4l-.494-.44-.48-.32c-.188-.115-.384-.218-.586-.307l-.52-.24c-.218-.08-.44-.147-.667-.2-.179-.052-.362-.092-.547-.12l-.306-.146c-.544-1.572-1.565-2.936-2.92-3.9-1.355-.965-2.977-1.484-4.64-1.484-1.664 0-3.286.519-4.64 1.484-1.356.964-2.376 2.328-2.92 3.9l-.24.066c-.185.027-.368.068-.547.12-.226.053-.449.12-.667.2l-.52.24c-.202.09-.398.192-.586.307l-.48.4-.494.413c-.146.134-.293.254-.426.4-.134.147-.28.334-.414.494-.133.16-.24.306-.346.48-.107.173-.213.386-.32.586-.107.2-.173.334-.24.494-.098.247-.178.5-.24.76 0 .146-.094.293-.12.44-.083.417-.128.84-.133 1.266.006.407.046.813.12 1.214 0 .133.066.253.093.386.066.262.146.52.24.774l.16.386c.117.257.25.507.4.747l.187.293c.019.038.041.073.066.107l.067.093c.62.828 1.426 1.5 2.352 1.963.925.463 1.946.704 2.981.704h4v-1.827c-.405.235-.865.36-1.333.36-.723-.006-1.413-.299-1.92-.813-.244-.252-.435-.55-.564-.876-.128-.326-.191-.674-.185-1.024.006-.351.081-.697.221-1.018.14-.322.342-.612.595-.855l4-3.867c.497-.48 1.162-.747 1.853-.747.706.003 1.382.286 1.88.787l4 4c.497.5.775 1.175.775 1.88 0 .704-.279 1.38-.775 1.88-.498.5-1.174.784-1.88.787-.47.004-.93-.12-1.334-.36V24h4c1.035 0 2.056-.241 2.982-.704.926-.463 1.73-1.135 2.352-1.963l.067-.066c.025-.034.047-.07.066-.107l.187-.293c.149-.24.282-.49.4-.747l.16-.387c.094-.253.174-.511.24-.773 0-.133.066-.253.093-.387.075-.409.115-.824.12-1.24-.001-.447-.046-.894-.133-1.333z"/>
        <path d="M17.447 15.053c-.25-.244-.585-.381-.934-.381-.349 0-.684.137-.933.381l-4 3.867c-.142.116-.257.261-.34.425-.083.163-.132.342-.143.525-.01.183.017.367.08.539.064.172.162.33.289.462.127.132.28.237.449.308.17.07.351.105.535.102.183-.003.364-.043.53-.12.168-.075.317-.185.44-.321l1.747-1.694v7.52c0 .354.14.693.39.943s.59.39.943.39c.354 0 .693-.14.943-.39s.39-.589.39-.943v-7.453l1.72 1.733c.124.125.272.224.434.292.163.068.337.103.513.103s.35-.035.513-.103c.162-.067.31-.167.434-.292.125-.124.224-.271.291-.434.068-.162.103-.336.103-.512s-.035-.35-.103-.513c-.067-.163-.166-.31-.291-.434l-4-4z"/>
    </g>
    <defs>
        <clipPath id="clip0">
            <path fill="#fff" d="M0 0H32V32H0z"/>
        </clipPath>
    </defs>
</svg>
